<?xml version="1.0" standalone="no"?>
<!DOCTYPE svg PUBLIC "-//W3C//DTD SVG 20010904//EN"
 "http://www.w3.org/TR/2001/REC-SVG-20010904/DTD/svg10.dtd">
<svg version="1.0" xmlns="http://www.w3.org/2000/svg"
 width="597.000000pt" height="597.000000pt" viewBox="0 0 597.000000 597.000000"
 preserveAspectRatio="xMidYMid meet">
<metadata>
Created by potrace 1.14, written by Peter Selinger 2001-2017
</metadata>
<g transform="translate(0.000000,597.000000) scale(0.100000,-0.100000)"
fill="#000000" stroke="none">
<path d="M2738 5955 c-2 -3 -30 -6 -61 -7 -31 -2 -57 -5 -57 -8 0 -3 -15 -5
-32 -4 -18 0 -39 -5 -47 -10 -12 -9 -13 -8 -7 2 7 11 4 12 -12 3 -11 -6 -34
-11 -51 -11 -16 0 -32 -4 -35 -8 -3 -5 -24 -9 -47 -10 -24 -1 -45 -6 -48 -10
-3 -4 -18 -7 -33 -7 -16 1 -28 -2 -28 -5 0 -3 -12 -7 -27 -8 -15 -1 -29 -6
-32 -10 -3 -4 -16 -7 -28 -6 -13 1 -23 -3 -23 -7 0 -5 -13 -9 -28 -9 -15 0
-34 -6 -41 -12 -11 -11 -13 -10 -7 0 5 7 -6 5 -26 -6 -18 -10 -39 -17 -47 -14
-9 3 -11 0 -6 -8 6 -9 0 -12 -23 -8 -18 2 -30 0 -29 -6 1 -5 -5 -11 -13 -11
-8 -1 -31 -8 -50 -15 -19 -8 -38 -13 -42 -12 -5 1 -8 -3 -8 -8 0 -6 -9 -10
-20 -10 -11 0 -20 -5 -20 -12 0 -6 -3 -8 -7 -5 -3 4 -13 1 -21 -6 -13 -10 -14
-9 -7 3 4 8 -4 4 -20 -10 -16 -14 -25 -18 -21 -10 4 8 1 7 -7 -3 -9 -10 -18
-18 -21 -18 -24 3 -36 0 -31 -9 3 -6 -1 -7 -9 -4 -9 4 -18 -1 -22 -10 -3 -9
-10 -14 -15 -11 -9 6 -44 -11 -67 -32 -7 -7 -19 -13 -26 -13 -7 0 -21 -8 -32
-18 -10 -10 -21 -19 -24 -19 -19 -4 -60 -28 -60 -35 0 -4 -7 -8 -15 -8 -8 0
-15 -5 -15 -11 0 -5 -4 -7 -10 -4 -5 3 -10 2 -10 -4 0 -6 -16 -18 -35 -27 -19
-9 -35 -21 -35 -26 0 -5 -4 -7 -9 -3 -6 3 -14 -3 -20 -12 -6 -10 -11 -14 -11
-10 0 4 -6 2 -14 -5 -8 -7 -11 -17 -8 -22 3 -5 1 -6 -5 -3 -11 7 -115 -68
-106 -77 4 -3 -1 -6 -10 -6 -9 0 -17 -4 -17 -10 0 -5 -6 -10 -12 -10 -7 0 -24
-12 -37 -25 -13 -14 -27 -25 -33 -25 -5 0 -6 -4 -3 -10 3 -5 2 -10 -4 -10 -13
0 -231 -216 -225 -223 3 -3 -4 -8 -15 -12 -20 -6 -26 -17 -21 -40 1 -5 -1 -7
-5 -3 -9 8 -82 -69 -91 -95 -3 -9 -10 -15 -15 -12 -5 3 -6 -2 -2 -11 4 -12 3
-15 -5 -10 -11 6 -16 -5 -13 -26 0 -4 -8 -10 -19 -13 -11 -4 -18 -10 -16 -14
3 -4 -8 -23 -24 -42 -16 -19 -29 -40 -30 -46 0 -7 -5 -13 -12 -13 -6 0 -9 -3
-5 -6 3 -4 -4 -15 -16 -26 -12 -11 -15 -17 -7 -13 8 4 5 -2 -7 -13 -12 -11
-19 -22 -16 -26 4 -3 1 -6 -6 -6 -7 0 -9 -4 -6 -10 3 -5 1 -10 -4 -10 -6 0
-11 -7 -11 -16 0 -9 -5 -12 -12 -8 -6 4 -8 3 -4 -4 3 -6 -2 -18 -11 -28 -10
-10 -16 -19 -13 -20 3 -2 -3 -12 -12 -23 -9 -11 -13 -22 -10 -26 4 -3 2 -9 -3
-13 -6 -4 -16 -20 -23 -35 -7 -15 -16 -26 -21 -23 -4 3 -7 -6 -5 -19 1 -14 -1
-25 -6 -25 -8 0 -23 -38 -21 -52 1 -5 -3 -8 -9 -8 -5 0 -10 -4 -10 -9 0 -5
-10 -30 -22 -57 -12 -27 -23 -51 -23 -54 -1 -3 -7 -18 -14 -35 -7 -16 -14 -35
-15 -42 -1 -7 -5 -16 -9 -19 -4 -4 -7 -16 -7 -26 0 -10 -4 -18 -8 -18 -4 0 -8
-10 -9 -22 -1 -11 -6 -24 -10 -27 -4 -3 -9 -17 -11 -31 -1 -14 -5 -32 -9 -40
-7 -17 -13 -38 -17 -60 -2 -8 -6 -22 -9 -30 -6 -17 -18 -65 -24 -94 -2 -11 -8
-25 -14 -33 -9 -9 -8 -13 0 -13 8 0 9 -5 2 -19 -6 -10 -7 -21 -4 -25 3 -3 1
-6 -4 -6 -6 0 -10 -8 -9 -17 2 -10 -2 -41 -9 -69 -6 -28 -11 -60 -10 -72 1
-12 -1 -22 -5 -22 -3 0 -6 -21 -5 -46 0 -25 -3 -48 -7 -50 -4 -3 -5 -11 -2
-18 3 -8 1 -17 -5 -21 -8 -4 -8 -12 -1 -25 7 -13 7 -21 -1 -26 -8 -4 -7 -9 2
-15 8 -5 9 -9 4 -9 -14 0 -14 -350 0 -350 5 0 4 -4 -3 -9 -17 -10 -17 -22 -1
-32 10 -6 10 -11 0 -23 -9 -11 -10 -16 -2 -16 6 0 11 -7 11 -15 0 -8 -6 -15
-12 -15 -9 0 -9 -3 1 -9 9 -6 14 -24 13 -51 -1 -29 2 -39 10 -34 7 5 8 3 2 -7
-11 -19 -14 -39 -5 -39 5 0 7 -16 6 -35 -1 -19 2 -35 6 -35 4 0 6 -13 5 -30
-1 -16 2 -30 7 -30 4 0 5 -9 2 -20 -4 -12 -2 -20 5 -20 6 0 9 -3 6 -8 -2 -4 2
-34 9 -67 8 -32 12 -62 9 -66 -2 -4 0 -10 6 -14 5 -3 10 -15 10 -26 0 -14 4
-18 13 -13 8 5 8 2 -2 -9 -10 -13 -10 -17 -1 -17 7 0 10 -8 7 -20 -3 -11 -1
-23 4 -26 5 -3 9 -15 9 -26 0 -12 8 -30 17 -41 13 -15 14 -18 3 -12 -13 7 -13
6 -2 -7 7 -9 15 -27 18 -39 13 -61 24 -89 33 -89 5 0 8 -8 8 -18 0 -33 3 -43
12 -38 4 3 7 -6 5 -19 -1 -17 3 -25 12 -25 9 0 13 -4 10 -8 -3 -5 1 -19 8 -33
13 -26 17 -35 24 -61 2 -10 9 -18 15 -18 6 0 7 -3 4 -6 -3 -4 -1 -16 5 -28 7
-11 11 -24 10 -28 -1 -5 3 -7 9 -5 6 1 12 -8 14 -20 1 -13 9 -31 18 -41 9 -10
17 -24 17 -30 0 -6 7 -18 16 -26 9 -9 17 -22 18 -29 1 -6 13 -30 27 -52 13
-22 23 -44 21 -48 -1 -5 1 -6 6 -3 4 2 16 -11 27 -30 10 -19 22 -34 27 -34 5
0 6 -4 3 -10 -3 -5 -1 -10 5 -10 6 0 9 -4 6 -8 -3 -5 4 -15 15 -22 10 -8 19
-20 19 -27 0 -7 5 -13 10 -13 6 0 10 -7 10 -15 0 -8 5 -15 11 -15 5 0 7 -4 4
-10 -3 -5 1 -10 9 -10 9 0 16 -7 16 -15 0 -8 5 -15 10 -15 6 0 10 -6 10 -13 0
-7 9 -19 19 -27 11 -7 18 -17 15 -22 -3 -4 3 -8 12 -8 10 0 14 -3 11 -6 -4 -4
3 -15 15 -25 11 -11 18 -19 15 -19 -3 0 11 -17 33 -39 21 -21 36 -41 33 -45
-4 -3 -1 -6 6 -6 15 0 61 -45 61 -60 0 -6 5 -8 10 -5 6 3 10 -2 10 -11 0 -10
3 -15 6 -12 8 8 100 -82 96 -94 -1 -5 1 -7 6 -4 5 3 22 -8 38 -24 16 -16 32
-30 36 -30 4 0 21 -14 36 -30 16 -17 34 -30 41 -30 6 0 14 -7 17 -15 4 -8 9
-13 13 -10 4 2 14 -5 21 -16 8 -10 19 -19 26 -19 6 0 19 -9 29 -20 10 -11 24
-20 32 -20 8 0 11 -4 8 -10 -3 -5 1 -10 9 -10 9 0 16 -4 16 -9 0 -5 11 -12 25
-15 14 -4 25 -11 25 -17 0 -6 5 -7 10 -4 6 3 10 2 10 -3 0 -5 14 -15 30 -22
17 -7 30 -17 30 -22 0 -5 4 -6 10 -3 5 3 10 1 10 -5 0 -6 5 -8 10 -5 6 3 10 2
10 -3 0 -9 70 -47 83 -44 4 1 7 -3 7 -8 0 -6 7 -10 15 -10 7 0 19 -8 24 -17 6
-10 11 -14 11 -10 0 4 20 -4 45 -18 25 -13 49 -25 53 -26 14 -3 48 -17 101
-43 30 -14 58 -23 62 -20 5 3 9 0 9 -5 0 -6 9 -11 20 -11 11 0 20 -5 20 -11 0
-5 4 -8 9 -4 5 3 17 -2 25 -11 10 -10 16 -11 16 -3 0 8 3 9 13 0 8 -6 17 -8
20 -4 4 3 7 1 7 -5 0 -6 7 -9 15 -6 8 4 15 1 15 -5 0 -6 7 -8 17 -4 10 4 14 2
10 -4 -4 -6 8 -9 28 -8 18 0 31 -3 29 -7 -5 -7 26 -13 48 -9 5 0 8 -3 8 -7 0
-4 14 -9 32 -10 18 -2 35 -6 38 -11 3 -4 17 -7 33 -7 15 1 27 -2 27 -7 0 -4 4
-5 10 -2 6 3 10 2 10 -3 0 -5 6 -9 13 -9 18 -1 116 -13 162 -20 22 -3 43 -11
47 -17 5 -7 8 -7 8 3 0 11 3 11 17 0 14 -12 16 -12 8 0 -6 11 -5 12 6 5 15
-10 56 -15 107 -14 24 1 31 -3 26 -11 -5 -8 -3 -9 7 -3 18 11 39 14 39 5 0 -7
368 -6 423 3 28 4 36 2 30 -7 -4 -8 -1 -8 9 1 9 8 25 13 35 12 10 -1 20 -1 23
0 3 1 28 4 55 5 28 2 50 4 50 5 0 1 9 4 20 5 11 2 38 7 60 12 22 6 52 9 67 9
14 -1 24 3 21 8 -4 5 1 7 10 3 10 -3 17 -3 17 2 0 5 11 7 25 6 14 -2 25 0 25
5 0 4 8 7 18 7 39 0 53 3 48 12 -3 4 6 7 19 5 14 -1 25 1 25 6 0 5 11 7 25 5
14 -1 25 2 25 7 0 5 5 6 10 3 6 -3 10 -2 10 4 0 5 8 8 18 7 9 -2 26 3 38 11
11 7 24 10 27 6 4 -3 7 -1 7 6 0 7 7 11 15 8 8 -4 17 -2 20 4 4 5 10 7 15 4 5
-3 11 -1 15 5 4 6 10 8 15 5 5 -3 11 -1 15 5 4 6 11 8 16 5 5 -4 9 -1 9 5 0 6
4 9 9 5 5 -3 12 -1 16 4 3 6 13 7 22 4 11 -4 14 -3 9 5 -6 11 5 15 30 11 4 0
10 4 14 11 4 6 13 12 21 14 8 1 24 7 35 14 12 6 24 8 28 5 3 -3 6 0 6 7 0 7 3
10 7 7 3 -4 12 1 20 11 10 11 12 12 8 2 -5 -12 -4 -12 7 1 7 9 18 14 24 12 7
-2 18 2 25 10 14 13 39 25 50 23 3 0 13 7 23 17 10 9 21 15 26 12 4 -3 11 2
14 11 3 8 10 12 16 9 5 -3 10 -1 10 4 0 6 7 11 15 11 8 0 15 5 15 11 0 5 5 7
10 4 6 -3 13 1 16 9 3 9 10 13 15 11 5 -3 16 3 26 15 10 11 21 20 26 20 10 0
71 42 75 53 2 4 10 7 17 7 7 0 16 7 19 16 4 9 13 14 22 10 8 -3 12 -2 9 3 -3
5 4 12 15 16 11 3 20 11 20 17 0 6 3 9 6 6 3 -3 15 4 28 16 40 38 64 54 70 49
3 -4 6 1 6 11 0 9 5 14 10 11 6 -3 10 1 10 10 0 9 5 13 10 10 6 -3 13 1 16 9
3 8 14 18 24 21 11 3 22 15 25 26 4 10 11 17 16 14 5 -4 9 1 9 9 0 9 3 15 8
13 8 -2 212 201 212 212 0 4 9 13 20 21 11 8 20 18 20 22 0 4 10 17 23 30 12
13 31 36 42 51 11 16 28 38 37 49 10 11 20 29 23 39 4 11 11 17 16 14 5 -4 9
1 9 9 0 9 5 16 11 16 5 0 8 4 5 8 -3 5 3 14 14 22 10 7 16 19 14 25 -3 7 2 15
10 18 9 4 16 13 16 22 0 8 5 15 10 15 6 0 10 7 10 15 0 8 5 15 10 15 6 0 10 7
10 15 0 7 8 19 18 24 9 6 11 11 5 11 -8 0 -5 8 7 20 12 12 18 26 14 32 -4 7
-3 8 4 4 7 -4 13 -2 13 3 1 6 2 14 3 19 0 4 11 22 24 39 13 18 20 37 17 43 -3
5 1 10 9 10 9 0 13 7 11 20 -2 11 0 20 4 20 9 0 41 66 41 85 0 8 3 15 8 15 7
0 32 63 34 88 1 6 8 12 17 12 14 0 14 2 1 10 -11 7 -11 10 -2 10 7 0 10 4 7
10 -3 5 -2 10 4 10 5 0 8 11 7 25 -2 13 0 22 4 20 8 -5 23 32 21 48 -1 4 6 21
14 38 9 16 13 34 10 39 -3 6 -2 10 2 10 5 0 10 12 11 27 1 15 8 30 15 35 6 4
8 8 4 8 -4 0 -3 8 2 18 7 13 6 23 -2 32 -9 10 -9 11 0 6 11 -6 27 42 27 84 0
8 4 17 8 20 4 3 8 21 9 40 2 19 5 40 9 45 3 6 7 26 9 45 2 19 8 41 14 49 10
12 9 13 -2 6 -11 -6 -12 -5 -5 6 8 13 10 25 13 87 1 14 5 21 12 16 7 -4 7 1
-1 16 -8 15 -8 26 -2 32 6 6 7 22 2 39 -5 18 -5 27 1 24 14 -9 11 19 -3 34
-11 10 -10 11 2 6 13 -4 15 20 14 188 0 106 -2 197 -5 202 -3 6 -4 21 -3 35 1
14 -3 28 -10 32 -8 6 -7 8 2 8 7 0 10 5 6 11 -4 7 -7 26 -6 43 0 17 -5 34 -11
38 -9 6 -8 8 2 8 11 0 11 3 1 15 -10 12 -10 15 0 15 9 0 9 4 2 13 -6 7 -9 25
-8 40 2 15 0 30 -5 32 -4 3 -8 13 -8 23 -2 50 -6 72 -11 72 -5 0 -10 37 -13
88 0 6 -4 12 -8 12 -4 0 -7 8 -7 18 1 25 -10 72 -20 85 -4 7 -7 22 -6 35 0 12
-3 22 -7 22 -5 0 -9 11 -9 25 0 14 -3 25 -7 25 -5 0 -9 13 -10 28 -1 15 -9 41
-17 57 -8 15 -13 32 -10 37 3 4 0 8 -6 8 -6 0 -8 5 -5 10 3 6 1 10 -5 10 -6 0
-9 4 -5 9 3 6 -4 26 -15 46 -11 20 -17 34 -12 31 5 -3 -1 14 -13 38 -23 46
-38 86 -36 99 1 4 -3 7 -9 7 -5 0 -10 7 -10 15 0 8 -4 15 -10 15 -5 0 -6 7 -3
17 5 12 3 14 -7 8 -9 -6 -12 -4 -8 6 3 8 0 23 -8 33 -7 11 -11 23 -7 29 3 6 1
7 -5 3 -7 -4 -12 -1 -12 8 0 9 -5 16 -11 16 -5 0 -8 4 -5 9 3 5 -1 14 -9 21
-8 7 -12 16 -10 21 3 4 -3 12 -12 18 -14 8 -14 10 -3 11 10 0 7 5 -8 16 -12 8
-22 21 -22 28 0 8 -7 19 -15 26 -8 7 -12 16 -9 21 3 5 0 9 -5 9 -6 0 -11 6
-11 14 0 8 -7 17 -16 20 -8 3 -13 10 -9 15 3 6 -3 14 -12 20 -10 6 -14 11 -10
11 4 0 -1 10 -13 22 -11 12 -20 28 -20 35 0 8 -4 11 -10 8 -5 -3 -10 1 -10 9
0 9 -4 16 -10 16 -5 0 -10 7 -10 15 0 8 -5 15 -10 15 -6 0 -16 12 -23 28 -6
15 -26 42 -44 59 -18 18 -33 37 -33 43 0 5 -7 10 -16 10 -8 0 -13 4 -10 9 3 5
-1 11 -9 15 -8 3 -15 12 -15 21 0 8 -6 15 -13 15 -7 0 -21 14 -30 30 -10 17
-25 30 -33 30 -8 0 -13 3 -11 8 5 9 -141 151 -148 144 -3 -3 -5 3 -5 13 0 10
-3 16 -6 12 -4 -3 -19 6 -35 21 -16 15 -40 36 -54 47 -14 11 -40 32 -57 48
-17 15 -38 27 -45 27 -8 0 -11 5 -8 10 3 6 0 10 -8 10 -8 0 -18 7 -21 16 -3 8
-10 13 -15 10 -5 -3 -11 1 -15 9 -3 8 -12 15 -21 15 -8 0 -15 5 -15 11 0 5 -4
7 -10 4 -5 -3 -10 -1 -10 5 0 6 -12 16 -27 23 -16 6 -37 20 -47 29 -11 10 -26
18 -33 18 -7 0 -13 5 -13 10 0 6 -5 10 -11 10 -6 0 -23 9 -38 19 -15 11 -34
21 -42 23 -8 2 -19 10 -26 18 -7 8 -13 11 -13 6 0 -5 -9 -1 -19 8 -11 10 -26
18 -34 20 -8 1 -21 7 -28 12 -17 14 -52 28 -61 26 -5 -1 -8 3 -8 9 0 5 -4 7
-10 4 -5 -3 -10 -1 -10 5 0 6 -4 8 -10 5 -5 -3 -10 -1 -10 6 0 7 -3 9 -6 6 -4
-3 -16 -1 -28 5 -21 12 -27 14 -47 17 -5 0 -7 6 -3 12 4 8 0 9 -15 4 -12 -4
-21 -2 -21 4 0 6 -8 11 -18 11 -10 0 -24 6 -31 13 -11 10 -12 9 -6 -3 6 -11 3
-10 -12 3 -11 9 -23 14 -26 10 -4 -3 -7 -1 -7 6 0 7 -4 10 -9 7 -5 -3 -22 1
-38 9 -16 8 -40 16 -54 17 -13 2 -26 6 -29 10 -3 4 -16 9 -28 11 -12 2 -25 6
-28 10 -4 4 -20 7 -36 7 -15 0 -28 3 -28 8 0 4 -12 8 -27 9 -35 2 -55 6 -70
16 -8 5 -13 3 -13 -5 0 -8 -5 -6 -11 5 -6 9 -14 15 -19 12 -5 -3 -19 -1 -31 6
-17 9 -20 8 -14 -2 6 -8 4 -10 -6 -4 -12 8 -50 15 -86 18 -7 0 -13 3 -13 7 0
4 -18 6 -40 6 -22 -1 -40 2 -40 6 0 5 -5 8 -11 8 -5 0 -7 -5 -3 -12 4 -7 3 -8
-4 -4 -6 4 -26 9 -44 13 -39 6 -564 14 -570 8z"/>
</g>
</svg>
